<svg width="54" height="53" viewBox="0 0 54 53" fill="none" xmlns="http://www.w3.org/2000/svg">
<path d="M0.880371 25.3272C0.880371 13.3878 0.880371 7.41816 4.58945 3.70908C8.29853 0 14.2682 0 26.2076 0H28.3182C40.2576 0 46.2271 0 49.9363 3.70908C53.6453 7.41816 53.6453 13.3878 53.6453 25.3272V27.4378C53.6453 39.3772 53.6453 45.3468 49.9363 49.0559C46.2271 52.765 40.2576 52.765 28.3182 52.765H26.2076C14.2682 52.765 8.29853 52.765 4.58945 49.0559C0.880371 45.3468 0.880371 39.3772 0.880371 27.4378V25.3272Z" fill="url(#paint0_linear_547_5)"/>
<path d="M20.2986 36.9153L20.7816 37.1541C22.7946 38.3478 25.0489 38.9048 27.3034 38.9048C34.3886 38.9048 40.1857 33.175 40.1857 26.1718C40.1857 22.8294 38.8169 19.5665 36.4015 17.179C33.9861 14.7915 30.7654 13.4387 27.3034 13.4387C20.2181 13.4387 14.421 19.1686 14.5015 26.2514C14.5015 28.6388 15.2262 30.9468 16.4339 32.9362L16.7559 33.4138L15.4678 38.1091L20.2986 36.9153Z" fill="white"/>
<path d="M37.7702 15.9057C35.0327 13.1204 31.2485 11.6083 27.3838 11.6083C19.1714 11.6083 12.5692 18.2136 12.6497 26.2513C12.6497 28.7979 13.3743 31.265 14.5821 33.4933L12.4887 41.0535L20.2986 39.064C22.4724 40.2578 24.8878 40.8149 27.3034 40.8149C35.4353 40.8149 42.0375 34.2095 42.0375 26.1719C42.0375 22.2723 40.5076 18.6115 37.7702 15.9057ZM27.3838 38.3479C25.2099 38.3479 23.0361 37.7909 21.1842 36.6767L20.7012 36.438L16.0314 37.6316L17.239 33.0956L16.917 32.618C13.3743 26.9678 15.0651 19.4869 20.8622 15.9852C26.6592 12.4837 34.1471 14.1549 37.6897 19.8848C41.2323 25.6147 39.5415 33.0158 33.7446 36.5175C31.8926 37.7112 29.6383 38.3479 27.3838 38.3479ZM34.4691 29.5144L33.5834 29.1165C33.5834 29.1165 32.2953 28.5594 31.4901 28.1614C31.4096 28.1614 31.3291 28.0818 31.2485 28.0818C31.007 28.0818 30.8459 28.1614 30.6849 28.2411C30.6849 28.2411 30.6045 28.3206 29.4773 29.5939C29.3967 29.7531 29.2357 29.8327 29.0747 29.8327H28.9941C28.9136 29.8327 28.7526 29.7531 28.6721 29.6735L28.2695 29.5144C27.3838 29.1165 26.5787 28.6389 25.9346 28.0023C25.7736 27.8431 25.532 27.684 25.371 27.5248C24.8073 26.9678 24.2437 26.331 23.8412 25.6148L23.7607 25.4557C23.6802 25.376 23.6802 25.2965 23.5997 25.1373C23.5997 24.9782 23.5997 24.819 23.6802 24.7394C23.6802 24.7394 24.0023 24.3415 24.2437 24.1028C24.4049 23.9435 24.4853 23.7049 24.6463 23.5457C24.8073 23.3069 24.8879 22.9886 24.8073 22.7499C24.7269 22.3519 23.7607 20.2032 23.5192 19.7258C23.3581 19.487 23.1972 19.4075 22.9556 19.3278H22.07C21.9088 19.3278 21.7479 19.4075 21.5868 19.4075L21.5062 19.487C21.3452 19.5666 21.1842 19.7258 21.0232 19.8053C20.8622 19.9646 20.7816 20.1236 20.6206 20.2829C20.057 20.9991 19.7349 21.8745 19.7349 22.7499C19.7349 23.3865 19.896 24.0232 20.1375 24.5803L20.2181 24.819C20.9427 26.331 21.9088 27.684 23.1972 28.8777L23.5192 29.196C23.7607 29.4348 24.0023 29.5939 24.1633 29.8326C25.8541 31.2652 27.7864 32.2997 29.9603 32.8568C30.2019 32.9363 30.5239 32.9363 30.7655 33.0159H31.5706C31.9732 33.0159 32.4562 32.8568 32.7784 32.6976C33.0198 32.5385 33.1808 32.5385 33.3419 32.3793L33.503 32.2201C33.664 32.0609 33.825 31.9814 33.986 31.8222C34.1471 31.6631 34.3081 31.5039 34.3886 31.3447C34.5497 31.0264 34.6301 30.6284 34.7107 30.2306V29.6735C34.7107 29.6735 34.6301 29.5939 34.4691 29.5144Z" fill="black"/>
<defs>
<linearGradient id="paint0_linear_547_5" x1="27.2629" y1="0" x2="27.2629" y2="52.765" gradientUnits="userSpaceOnUse">
<stop stop-color="white"/>
<stop offset="0.765625" stop-color="white"/>
</linearGradient>
</defs>
</svg>
